<svg xmlns="http://www.w3.org/2000/svg" version="1.1" xmlns:xlink="http://www.w3.org/1999/xlink" width="1000" height="1000"><metadata><rdf:RDF xmlns:rdf="http://www.w3.org/1999/02/22-rdf-syntax-ns#" xmlns:dc="http://purl.org/dc/elements/1.1/"><rdf:Description><dc:creator>RealFaviconGenerator</dc:creator><dc:source>https://realfavicongenerator.net</dc:source></rdf:Description></rdf:RDF></metadata><g clip-path="url(#SvgjsClipPath1055)"><rect width="1000" height="1000" fill="#e7decf"></rect><g transform="matrix(1.3618677042801557,0,0,1.3618677042801557,150,156.80933852140078)"><svg xmlns="http://www.w3.org/2000/svg" version="1.1" viewBox="287 252 514 504" width="514" height="504"><title>Zuno</title><path d="M0 0 C2.19297547 -0.0040731 4.38594888 -0.0094191 6.57891846 -0.01593018 C12.49425699 -0.0295225 18.40943728 -0.02433847 24.32477832 -0.01479292 C30.54058403 -0.00715325 36.75637694 -0.01425392 42.97218323 -0.01895142 C54.07495501 -0.02474486 65.17765733 -0.01546974 76.28041799 -0.0001734 C86.31474761 0.01322382 96.34897304 0.01090101 106.38330078 -0.00292969 C118.07853665 -0.01898496 129.77370747 -0.02492917 141.46895272 -0.0160929 C147.64414185 -0.01143757 153.81925948 -0.01073214 159.99444389 -0.02070236 C165.80339504 -0.02942746 171.61215125 -0.02324965 177.42108154 -0.00601959 C179.54133342 -0.002084 181.66160196 -0.00313795 183.781847 -0.00980759 C216.29888036 -0.10259273 246.44625272 8.67010376 270.18188477 31.66943359 C290.34806026 51.86462517 302.06100877 76.35405744 302.13696289 104.9855957 C302.14653156 107.15600998 302.17752164 109.32541861 302.20922852 111.49560547 C302.31457534 125.05377122 300.56066269 137.94135036 295.20922852 150.51318359 C294.85965088 151.35445801 294.51007324 152.19573242 294.14990234 153.0625 C287.32118798 169.11403526 277.5179209 182.35883384 265.84985352 195.18896484 C263.66063423 197.65402576 261.59177419 200.19734026 259.52172852 202.76318359 C255.63631212 207.55653234 251.53947817 212.10368666 247.36157227 216.64208984 C244.96965554 219.30693526 242.70417968 222.03650185 240.45922852 224.82568359 C236.80166588 229.36054521 232.95055824 233.64354542 228.98510742 237.90527344 C225.18594441 242.01251258 221.66043506 246.30419461 218.15063477 250.66162109 C214.97077818 254.50831068 211.60355852 258.16974277 208.22875977 261.84521484 C202.75410741 267.81506189 197.52710767 273.99187147 192.30200195 280.1796875 C188.7844748 284.34404749 185.25262113 288.49581293 181.70922852 292.63818359 C181.20407715 293.23195801 180.69892578 293.82573242 180.1784668 294.4375 C177.40342231 297.68639899 174.54282821 300.80392909 171.58422852 303.88818359 C155.21036553 322.2364417 151.96870037 351.87813723 152.89672852 375.38818359 C154.2118879 390.5041927 157.98333756 405.97206603 165.51782227 419.24365234 C168.41578305 425.85231646 167.98379379 434.42328367 166.08813477 441.33740234 C161.78077218 450.83148528 154.47696713 457.14271801 145.10003281 461.30896187 C139.45251422 463.21166114 133.91046229 463.0577077 128.00268555 462.98754883 C126.64285841 462.98941738 125.28303281 462.99346365 123.92321777 462.99949646 C120.26165635 463.00939583 116.60088042 462.98842327 112.93943262 462.96101642 C109.08584921 462.93700151 105.2322765 462.94012989 101.37863159 462.93971252 C94.90780536 462.9350974 88.43727505 462.91154891 81.96655273 462.87524414 C74.51672153 462.83355353 67.06715648 462.81593047 59.61721528 462.81262439 C51.64388653 462.80900566 43.67065161 462.79010325 35.69736242 462.76550412 C33.41905141 462.75931675 31.14074757 462.75565456 28.86243057 462.75247002 C25.26223426 462.74650492 21.662222 462.73001688 18.06210327 462.70586586 C16.13362101 462.69505147 14.20509312 462.69359543 12.27658081 462.69256592 C-11.88575775 462.48830191 -31.82100044 455.00698375 -50.10327148 439.38818359 C-50.77745117 438.81583984 -51.45163086 438.24349609 -52.14624023 437.65380859 C-67.32427211 423.62194389 -76.78040206 401.79519174 -78.328125 381.42944336 C-79.31729818 354.83481588 -73.87959038 331.63473714 -55.66577148 311.26318359 C-54.148735 309.63463844 -52.62792543 308.00959945 -51.10327148 306.38818359 C-49.64119019 304.76655497 -48.18288163 303.14151723 -46.72827148 301.51318359 C-38.67977363 292.57504176 -30.5172696 283.74740501 -22.30249023 274.96240234 C-16.86252303 269.14068306 -11.47645317 263.27157838 -6.10327148 257.38818359 C-0.09742091 250.81204454 5.93608817 244.26554827 12.02172852 237.76318359 C15.85140303 233.67098487 19.6617683 229.56745134 23.39672852 225.38818359 C27.72502193 220.54500026 32.15896554 215.80485986 36.59716797 211.06274414 C42.07267994 205.20935616 47.4911986 199.30623783 52.89672852 193.38818359 C58.8240337 186.90546475 64.7682686 180.43950855 70.74829102 174.00537109 C71.64028198 173.04522095 71.64028198 173.04522095 72.55029297 172.06567383 C73.99894952 170.50636612 75.44781685 168.94725425 76.89672852 167.38818359 C75.64995331 167.38231735 74.4031781 167.37645111 73.11862183 167.3704071 C61.32051042 167.31298468 49.52257987 167.24012224 37.72465324 167.15246868 C31.66044338 167.1079016 25.59629858 167.06861579 19.53198242 167.04174805 C13.67037663 167.01557829 7.80902312 166.9750805 1.94757462 166.92499733 C-0.27927365 166.90842062 -2.50616545 166.89684949 -4.73306656 166.89056969 C-16.57255187 166.85383113 -27.63803402 166.64543089 -39.10327148 163.38818359 C-39.80872101 163.2016774 -40.51417053 163.0151712 -41.24099731 162.82301331 C-60.10813841 157.52757705 -77.0976401 143.93528683 -87.0949707 127.1875 C-97.70714505 108.25003633 -101.78578854 86.31611493 -96.60327148 64.95068359 C-89.92307734 42.13452755 -74.7718945 21.97009213 -53.9284668 10.34912109 C-36.55537219 1.2024517 -19.26579007 -0.06054074 0 0 Z" fill="#364338" transform="translate(408.103271484375,272.61181640625)"></path><path d="M0 0 C14.49821794 11.9657039 25.69265706 30.1990281 27.79101562 49.125 C29.46631535 72.03985458 24.54694041 93.87277103 9.38378906 111.78759766 C1.81637082 120.32853017 -6.08586793 125.93562465 -16.20898438 131.125 C-17.03914062 131.64449219 -17.86929688 132.16398438 -18.72460938 132.69921875 C-28.05956925 138.05654635 -38.52163566 138.49149497 -49.02148438 138.5 C-50.59494629 138.50229614 -50.59494629 138.50229614 -52.20019531 138.50463867 C-73.51575806 138.20325749 -91.42919996 129.55266718 -106.61914062 114.78125 C-116.95326562 103.86217453 -122.42210555 92.41112227 -126.20898438 78.125 C-126.3878418 77.51390381 -126.56669922 76.90280762 -126.75097656 76.27319336 C-131.00335996 56.32824584 -126.19300163 36.36435183 -116.20898438 19.125 C-114.09190271 15.89445321 -111.78793073 12.99748497 -109.20898438 10.125 C-108.49226562 9.31546875 -107.77554688 8.5059375 -107.03710938 7.671875 C-78.63567462 -22.58586268 -32.40942834 -25.39295416 0 0 Z" fill="#D46A4A" transform="translate(733.208984375,596.875)"></path></svg></g></g><defs><clipPath id="SvgjsClipPath1055"><rect width="1000" height="1000" x="0" y="0" rx="350" ry="350"></rect></clipPath></defs></svg>